<svg xmlns="http://www.w3.org/2000/svg" xmlns:xlink="http://www.w3.org/1999/xlink" zoomAndPan="magnify" viewBox="17 24 342 139" preserveAspectRatio="xMidYMid meet" version="1.0"><defs><g/><clipPath id="3bbf934132"><path d="M 66 0.0898438 L 336.710938 0.0898438 L 336.710938 135.089844 L 66 135.089844 Z M 66 0.0898438 " clip-rule="nonzero"/></clipPath><clipPath id="3595564a2e"><rect x="0" width="271" y="0" height="136"/></clipPath><clipPath id="0e6244e71a"><path d="M 127.28125 33.246094 L 148.273438 33.246094 L 148.273438 54.238281 L 127.28125 54.238281 Z M 127.28125 33.246094 " clip-rule="nonzero"/></clipPath><clipPath id="ac47eef973"><path d="M 0.199219 38.949219 L 65.0625 38.949219 L 65.0625 103.8125 L 0.199219 103.8125 Z M 0.199219 38.949219 " clip-rule="nonzero"/></clipPath><clipPath id="d489ba6afe"><path d="M 10.125 38.949219 L 55.136719 38.949219 C 60.617188 38.949219 65.0625 43.394531 65.0625 48.875 L 65.0625 93.886719 C 65.0625 99.367188 60.617188 103.8125 55.136719 103.8125 L 10.125 103.8125 C 4.640625 103.8125 0.199219 99.367188 0.199219 93.886719 L 0.199219 48.875 C 0.199219 43.394531 4.640625 38.949219 10.125 38.949219 Z M 10.125 38.949219 " clip-rule="nonzero"/></clipPath><clipPath id="60025877e6"><path d="M 0.199219 0.949219 L 65.0625 0.949219 L 65.0625 65.8125 L 0.199219 65.8125 Z M 0.199219 0.949219 " clip-rule="nonzero"/></clipPath><clipPath id="3c8a171d23"><path d="M 10.125 0.949219 L 55.136719 0.949219 C 60.617188 0.949219 65.0625 5.394531 65.0625 10.875 L 65.0625 55.886719 C 65.0625 61.367188 60.617188 65.8125 55.136719 65.8125 L 10.125 65.8125 C 4.640625 65.8125 0.199219 61.367188 0.199219 55.886719 L 0.199219 10.875 C 0.199219 5.394531 4.640625 0.949219 10.125 0.949219 Z M 10.125 0.949219 " clip-rule="nonzero"/></clipPath><clipPath id="b7b6d292c0"><rect x="0" width="66" y="0" height="66"/></clipPath><clipPath id="2c601b8995"><path d="M 10.972656 50.066406 L 53.730469 50.066406 L 53.730469 92.824219 L 10.972656 92.824219 Z M 10.972656 50.066406 " clip-rule="nonzero"/></clipPath><clipPath id="7d99a9991d"><rect x="0" width="337" y="0" height="136"/></clipPath></defs><g transform="matrix(1, 0, 0, 1, 19, 26)"><g clip-path="url(#7d99a9991d)"><g clip-path="url(#3bbf934132)"><g transform="matrix(1, 0, 0, 1, 66, -0.000000000000007105)"><g clip-path="url(#3595564a2e)"><g fill="#000000" fill-opacity="1"><g transform="translate(2.410073, 103.22432)"><g><path d="M 46.359375 0 L 42.171875 -13.578125 L 18.484375 -13.578125 L 14.296875 0 L -0.921875 0 L 20.53125 -61.265625 L 40.734375 -61.265625 L 62.078125 0 Z M 24.203125 -31.859375 L 21.84375 -24.296875 L 38.796875 -24.296875 L 36.453125 -31.859375 C 34.753906 -37.367188 33.15625 -42.953125 31.65625 -48.609375 L 29.203125 -48.609375 C 28.453125 -45.878906 27.648438 -43.101562 26.796875 -40.28125 C 25.953125 -37.457031 25.085938 -34.648438 24.203125 -31.859375 Z M 24.203125 -31.859375 "/></g></g></g><g fill="#000000" fill-opacity="1"><g transform="translate(60.504244, 103.22432)"><g><path d="M 19.5 -55.234375 L 5 -55.234375 L 5 -65.25 L 19.5 -65.25 Z M 19.203125 0 L 5.3125 0 L 5.3125 -48.40625 L 19.203125 -48.40625 Z M 19.203125 0 "/></g></g></g><g fill="#000000" fill-opacity="1"><g transform="translate(81.944735, 103.22432)"><g><path d="M 25.9375 -10.828125 C 28.863281 -10.828125 31.226562 -11.828125 33.03125 -13.828125 C 34.832031 -15.835938 35.734375 -18.507812 35.734375 -21.84375 L 35.734375 -25.625 C 35.734375 -29.164062 34.847656 -31.972656 33.078125 -34.046875 C 31.304688 -36.128906 28.890625 -37.171875 25.828125 -37.171875 C 19.367188 -37.171875 16.140625 -32.710938 16.140625 -23.796875 C 16.140625 -19.429688 16.921875 -16.175781 18.484375 -14.03125 C 20.046875 -11.894531 22.53125 -10.828125 25.9375 -10.828125 Z M 35.734375 0 L 35.734375 -12.65625 L 34.921875 -12.65625 C 33.691406 -8.4375 31.75 -5.035156 29.09375 -2.453125 C 26.445312 0.128906 23.113281 1.421875 19.09375 1.421875 C 13.914062 1.421875 9.863281 -0.734375 6.9375 -5.046875 C 4.007812 -9.367188 2.546875 -15.617188 2.546875 -23.796875 C 2.546875 -32.234375 4.007812 -38.664062 6.9375 -43.09375 C 9.863281 -47.519531 13.984375 -49.734375 19.296875 -49.734375 C 23.179688 -49.734375 26.414062 -48.523438 29 -46.109375 C 31.582031 -43.691406 33.519531 -40.367188 34.8125 -36.140625 L 35.734375 -36.140625 L 35.734375 -65.546875 L 49.625 -65.546875 L 49.625 0 Z M 35.734375 0 "/></g></g></g><g fill="#000000" fill-opacity="1"><g transform="translate(133.40244, 103.22432)"><g><path d="M 22.46875 -9.59375 C 25.664062 -9.59375 28.179688 -10.441406 30.015625 -12.140625 C 31.859375 -13.847656 32.78125 -15.992188 32.78125 -18.578125 L 32.78125 -20.53125 L 22.765625 -20.53125 C 20.523438 -20.53125 18.738281 -20.050781 17.40625 -19.09375 C 16.082031 -18.144531 15.421875 -16.816406 15.421875 -15.109375 C 15.421875 -13.609375 15.929688 -12.3125 16.953125 -11.21875 C 17.972656 -10.132812 19.8125 -9.59375 22.46875 -9.59375 Z M 33.484375 0 L 33.484375 -11.53125 L 32.265625 -11.53125 C 31.035156 -7.71875 29.128906 -4.671875 26.546875 -2.390625 C 23.960938 -0.117188 20.59375 1.015625 16.4375 1.015625 C 12.351562 1.015625 8.96875 -0.0703125 6.28125 -2.25 C 3.59375 -4.425781 2.25 -7.894531 2.25 -12.65625 C 2.25 -17.019531 3.625 -20.5625 6.375 -23.28125 C 9.132812 -26 13.710938 -27.359375 20.109375 -27.359375 L 32.78125 -27.359375 L 32.78125 -30.734375 C 32.78125 -33.253906 32.203125 -35.191406 31.046875 -36.546875 C 29.890625 -37.910156 27.984375 -38.59375 25.328125 -38.59375 C 20.765625 -38.59375 18.039062 -36.28125 17.15625 -31.65625 L 4.078125 -34.609375 C 4.898438 -39.035156 7.0625 -42.644531 10.5625 -45.4375 C 14.070312 -48.226562 19.160156 -49.625 25.828125 -49.625 C 33.179688 -49.625 38.472656 -47.988281 41.703125 -44.71875 C 44.941406 -41.457031 46.5625 -36.796875 46.5625 -30.734375 L 46.5625 0 Z M 33.484375 0 "/></g></g></g><g fill="#000000" fill-opacity="1"><g transform="translate(181.695062, 103.22432)"><g><path d="M 28.59375 -10.828125 C 32 -10.828125 34.46875 -11.929688 36 -14.140625 C 37.53125 -16.347656 38.296875 -19.664062 38.296875 -24.09375 C 38.296875 -28.519531 37.53125 -31.804688 36 -33.953125 C 34.46875 -36.097656 32.03125 -37.171875 28.6875 -37.171875 C 25.625 -37.171875 23.207031 -36.148438 21.4375 -34.109375 C 19.664062 -32.066406 18.78125 -29.304688 18.78125 -25.828125 L 18.78125 -22.0625 C 18.78125 -18.71875 19.679688 -16.007812 21.484375 -13.9375 C 23.296875 -11.863281 25.664062 -10.828125 28.59375 -10.828125 Z M 51.96875 -24.09375 C 51.96875 -15.789062 50.503906 -9.460938 47.578125 -5.109375 C 44.648438 -0.753906 40.566406 1.421875 35.328125 1.421875 C 31.316406 1.421875 28 0.128906 25.375 -2.453125 C 22.75 -5.035156 20.828125 -8.4375 19.609375 -12.65625 L 18.78125 -12.65625 L 18.78125 15.515625 L 4.90625 15.515625 L 4.90625 -48.40625 L 18.78125 -48.40625 L 18.78125 -36.140625 L 19.703125 -36.140625 C 20.992188 -40.367188 22.953125 -43.691406 25.578125 -46.109375 C 28.203125 -48.523438 31.453125 -49.734375 35.328125 -49.734375 C 40.640625 -49.734375 44.738281 -47.535156 47.625 -43.140625 C 50.519531 -38.753906 51.96875 -32.40625 51.96875 -24.09375 Z M 51.96875 -24.09375 "/></g></g></g><g fill="#000000" fill-opacity="1"><g transform="translate(233.152768, 103.22432)"><g><path d="M 7.453125 -15.21875 L 7.453125 -37.375 L 1.53125 -37.375 L 1.53125 -48.40625 L 7.453125 -48.40625 L 7.453125 -60.859375 L 21.34375 -60.859375 L 21.34375 -48.40625 L 34.109375 -48.40625 L 34.109375 -37.375 L 21.34375 -37.375 L 21.34375 -17.453125 C 21.34375 -15.554688 21.75 -14.113281 22.5625 -13.125 C 23.382812 -12.132812 24.847656 -11.640625 26.953125 -11.640625 C 28.046875 -11.640625 29.148438 -11.773438 30.265625 -12.046875 C 31.390625 -12.316406 32.394531 -12.585938 33.28125 -12.859375 L 34.8125 -0.40625 C 32.976562 0.132812 31.273438 0.570312 29.703125 0.90625 C 28.140625 1.25 26.035156 1.421875 23.390625 1.421875 C 19.640625 1.421875 16.585938 0.675781 14.234375 -0.8125 C 11.890625 -2.3125 10.171875 -4.320312 9.078125 -6.84375 C 7.992188 -9.363281 7.453125 -12.15625 7.453125 -15.21875 Z M 7.453125 -15.21875 "/></g></g></g></g></g></g><g clip-path="url(#0e6244e71a)"><path fill="#d33c1f" d="M 148.101562 43.65625 C 148.101562 44.339844 148.035156 45.015625 147.902344 45.6875 C 147.769531 46.359375 147.570312 47.007812 147.308594 47.640625 C 147.046875 48.273438 146.726562 48.871094 146.347656 49.441406 C 145.96875 50.007812 145.535156 50.535156 145.050781 51.019531 C 144.570312 51.5 144.042969 51.933594 143.476562 52.3125 C 142.90625 52.691406 142.308594 53.011719 141.675781 53.273438 C 141.042969 53.535156 140.394531 53.734375 139.722656 53.867188 C 139.050781 54 138.375 54.066406 137.691406 54.066406 C 137.007812 54.066406 136.332031 54 135.660156 53.867188 C 134.988281 53.734375 134.339844 53.535156 133.707031 53.273438 C 133.074219 53.011719 132.476562 52.691406 131.90625 52.3125 C 131.339844 51.933594 130.8125 51.5 130.332031 51.019531 C 129.847656 50.535156 129.414062 50.007812 129.035156 49.441406 C 128.65625 48.871094 128.335938 48.273438 128.074219 47.640625 C 127.8125 47.007812 127.613281 46.359375 127.480469 45.6875 C 127.347656 45.015625 127.28125 44.339844 127.28125 43.65625 C 127.28125 42.972656 127.347656 42.296875 127.480469 41.625 C 127.613281 40.957031 127.8125 40.304688 128.074219 39.671875 C 128.335938 39.042969 128.65625 38.441406 129.035156 37.875 C 129.414062 37.304688 129.847656 36.777344 130.332031 36.296875 C 130.8125 35.8125 131.339844 35.378906 131.90625 35 C 132.476562 34.621094 133.074219 34.300781 133.707031 34.039062 C 134.339844 33.777344 134.988281 33.578125 135.660156 33.445312 C 136.332031 33.3125 137.007812 33.246094 137.691406 33.246094 C 138.375 33.246094 139.050781 33.3125 139.722656 33.445312 C 140.394531 33.578125 141.042969 33.777344 141.675781 34.039062 C 142.308594 34.300781 142.90625 34.621094 143.476562 35 C 144.042969 35.378906 144.570312 35.8125 145.050781 36.296875 C 145.535156 36.777344 145.96875 37.304688 146.347656 37.875 C 146.726562 38.441406 147.046875 39.042969 147.308594 39.671875 C 147.570312 40.304688 147.769531 40.957031 147.902344 41.625 C 148.035156 42.296875 148.101562 42.972656 148.101562 43.65625 Z M 148.101562 43.65625 " fill-opacity="1" fill-rule="nonzero"/></g><g clip-path="url(#ac47eef973)"><g clip-path="url(#d489ba6afe)"><g transform="matrix(1, 0, 0, 1, -0.000000000000007105, 38)"><g clip-path="url(#b7b6d292c0)"><g clip-path="url(#60025877e6)"><g clip-path="url(#3c8a171d23)"><path fill="#0b66c2" d="M 0.199219 0.949219 L 65.0625 0.949219 L 65.0625 65.8125 L 0.199219 65.8125 Z M 0.199219 0.949219 " fill-opacity="1" fill-rule="nonzero"/></g></g></g></g></g></g><g clip-path="url(#2c601b8995)"><path fill="#ffffff" d="M 53.59375 50.066406 L 53.59375 92.6875 L 40.265625 92.6875 L 40.265625 72.820312 L 20.394531 92.6875 L 10.972656 83.261719 L 30.836456 63.394531 L 10.972656 63.394531 L 10.972656 50.066406 Z M 53.59375 50.066406 " fill-opacity="1" fill-rule="nonzero"/></g></g></g></svg>
